<?xml version="1.0" standalone="no"?>
<!DOCTYPE svg PUBLIC "-//W3C//DTD SVG 20010904//EN"
 "http://www.w3.org/TR/2001/REC-SVG-20010904/DTD/svg10.dtd">
<svg version="1.0" xmlns="http://www.w3.org/2000/svg"
 width="1600.000000pt" height="1600.000000pt" viewBox="0 0 1600.000000 1600.000000"
 preserveAspectRatio="xMidYMid meet">
<metadata>
Created by potrace 1.14, written by Peter Selinger 2001-2017
</metadata>
<g transform="translate(0.000000,1600.000000) scale(0.100000,-0.100000)"
fill="#000000" stroke="none">
<path d="M4689 12333 c-3 -24 -4 -28 -10 -38 -6 -10 -20 -67 -21 -82 0 -5 -3
-12 -8 -18 -4 -5 -13 -35 -20 -65 -7 -30 -15 -59 -19 -65 -3 -5 -6 -14 -8 -20
-1 -5 -11 -41 -23 -80 -12 -38 -23 -77 -25 -85 -3 -8 -20 -67 -39 -130 -19
-63 -49 -162 -66 -220 -17 -58 -45 -149 -61 -202 -17 -53 -32 -105 -34 -115
-2 -10 -13 -46 -24 -79 -12 -34 -22 -70 -24 -80 -2 -11 -7 -26 -10 -34 -9 -23
-60 -194 -62 -205 0 -5 -11 -44 -25 -85 -13 -41 -25 -81 -26 -88 -6 -34 -21
-37 -191 -34 l-168 3 0 344 c1 190 -1 346 -4 346 -4 1 -80 2 -170 3 -124 1
-165 -2 -168 -11 -9 -22 -9 -177 -1 -200 4 -12 4 -24 0 -27 -9 -5 -7 -210 2
-224 3 -6 3 -13 -1 -15 -10 -6 -9 -880 1 -895 4 -7 4 -12 -1 -12 -4 0 -8 -41
-8 -90 0 -50 3 -90 7 -90 4 0 4 -10 0 -22 -9 -28 -8 -221 2 -236 3 -6 3 -13
-1 -15 -10 -6 -8 -210 1 -225 3 -6 3 -13 -1 -15 -10 -6 -9 -370 1 -385 3 -6 3
-13 -1 -15 -10 -6 -8 -210 1 -225 3 -6 3 -13 -1 -15 -10 -6 -9 -690 1 -705 3
-6 3 -13 -1 -15 -7 -4 -9 -195 -3 -222 1 -5 1 -14 0 -20 -1 -5 -3 -197 -3
-425 l-2 -415 -1735 -1 -1735 -1 0 -348 0 -349 1563 0 1562 0 0 -521 0 -521
-1552 1 c-854 0 -1559 -1 -1565 -3 -10 -3 -13 -47 -13 -176 l0 -171 8000 0
8000 0 0 175 0 175 -1565 0 -1565 -1 2 521 3 520 1555 2 c855 0 1558 2 1563 2
4 1 6 157 5 348 l-3 347 -1725 1 c-949 1 -1731 2 -1739 3 -8 1 -12 5 -8 8 3 3
2 17 -3 30 -5 13 -6 25 -2 28 9 5 7 210 -2 224 -3 6 -3 13 1 15 10 6 9 690 -1
705 -3 6 -3 13 1 15 10 6 8 210 -1 225 -3 6 -3 13 1 15 10 6 9 370 -1 385 -3
6 -3 13 1 15 10 6 8 210 -1 225 -3 6 -3 13 1 15 10 6 9 690 -1 705 -3 6 -3 13
1 15 10 6 8 210 -1 225 -3 6 -3 13 1 15 10 6 9 690 -1 705 -3 6 -3 13 1 15 10
6 8 210 -1 225 -3 6 -3 13 1 15 10 6 9 370 -1 385 -3 6 -3 13 1 15 7 4 9 195
3 222 -1 6 -1 12 0 15 9 23 6 42 -8 48 -10 5 -89 8 -177 8 l-160 -1 0 -345 -1
-345 -175 -3 -176 -2 -18 62 c-22 76 -24 83 -29 106 -3 9 -5 18 -6 20 -2 1 -3
5 -4 10 -7 30 -40 134 -51 165 -8 20 -13 37 -10 37 3 0 -4 24 -14 53 -10 28
-28 88 -41 132 -12 44 -26 89 -30 100 -9 25 -52 165 -54 179 -1 6 -11 38 -21
71 -10 33 -20 65 -21 70 -1 6 -12 42 -24 80 -12 39 -23 77 -25 85 -2 8 -18 60
-35 115 -17 55 -33 111 -36 124 -3 13 -9 32 -15 43 -5 10 -7 18 -4 18 3 0 -1
13 -10 30 -8 16 -15 31 -14 32 2 3 -23 96 -43 161 -12 40 -22 35 -32 -14 -3
-13 -12 -46 -21 -74 -9 -27 -27 -86 -40 -130 -13 -44 -53 -179 -89 -300 -37
-121 -78 -258 -92 -305 -14 -47 -29 -95 -35 -108 -5 -13 -9 -29 -9 -37 0 -7
-5 -26 -12 -42 -6 -15 -12 -32 -13 -38 -3 -10 -34 -122 -39 -140 -2 -5 -4 -13
-6 -17 -1 -4 -9 -29 -17 -55 -25 -80 -54 -177 -58 -193 -2 -8 -10 -35 -18 -60
-13 -36 -36 -115 -42 -140 -11 -47 -4 -45 -188 -42 l-172 3 0 340 c0 187 -2
344 -5 347 -3 4 -80 8 -172 8 -159 0 -167 -1 -170 -21 -2 -11 -3 -324 -3 -696
l1 -675 -2085 0 -2086 1 -2 680 c0 374 -2 687 -2 695 -1 13 -27 15 -171 15
-108 0 -170 -3 -171 -10 -1 -5 -2 -158 -3 -340 -1 -181 -4 -334 -8 -340 -4 -6
-70 -9 -175 -7 l-168 3 -33 112 c-48 162 -63 211 -66 222 -18 63 -39 133 -43
145 -3 8 -7 20 -8 25 -2 6 -17 57 -35 115 -17 58 -33 110 -34 115 -9 34 -30
105 -41 135 -7 19 -13 38 -14 42 -1 4 -3 13 -5 20 -2 7 -6 22 -9 33 -3 11 -19
67 -37 125 -18 58 -34 112 -35 120 -2 8 -4 16 -5 18 -2 1 -4 7 -5 12 -1 6 -4
12 -5 15 -1 3 -3 8 -4 13 -2 4 -8 27 -16 52 -17 57 -16 53 -38 130 -10 36 -22
72 -25 80 -8 20 -41 132 -43 145 -2 20 -23 60 -25 48z m-174 -2775 c8 -7 11
-676 4 -683 -5 -4 -102 -7 -240 -6 l-105 1 0 343 c0 188 3 345 8 348 12 8 325
5 333 -3z m701 -340 l1 -348 -54 0 c-29 -1 -91 -1 -138 -1 -47 0 -101 0 -120
1 l-35 0 0 348 0 348 173 -1 172 0 1 -347z m5914 343 c3 0 4 -156 2 -345 l-3
-345 -52 -3 c-28 -2 -106 -2 -173 0 l-120 3 0 347 0 348 170 -2 c94 -1 173 -2
176 -3z m696 -343 l1 -348 -41 0 c-186 -2 -299 0 -303 4 -4 4 -7 484 -4 651
l1 40 173 0 172 0 1 -347z m-1741 -1391 l0 -1042 -2085 0 -2085 0 -1 1035 c-1
569 1 1038 3 1042 2 4 941 7 2086 7 l2083 0 -1 -1042z m-5570 341 c4 -3 7
-160 7 -349 l1 -342 -132 -1 c-72 -1 -131 2 -131 6 0 4 -10 4 -22 0 -13 -4
-32 -7 -43 -7 -20 0 -20 7 -21 345 0 271 2 346 12 350 19 7 322 6 329 -2z
m696 3 c7 -1 7 -691 0 -692 -8 -1 -291 -1 -318 0 l-23 1 0 343 c0 189 2 346 4
348 4 3 318 3 337 0z m5914 -334 c0 -206 4 -337 10 -337 5 0 4 -5 -2 -11 -6
-6 -29 -11 -50 -10 -57 1 -60 1 -168 0 -55 0 -107 0 -115 0 -14 1 -16 41 -15
339 1 185 3 342 3 347 1 6 65 10 170 10 l167 -1 0 -337z m700 -10 c1 -306 -1
-347 -15 -348 -16 -1 -322 -1 -330 0 -4 1 -4 489 -1 666 l1 30 172 0 173 -1 0
-347z m-4399 -1400 c4 -4 0 -7 -9 -7 -9 0 -82 -23 -164 -51 -81 -28 -152 -52
-158 -53 -5 -2 -17 -6 -25 -9 -8 -3 -80 -26 -160 -52 -80 -26 -154 -51 -165
-55 -17 -7 -118 -41 -135 -45 -3 -1 -12 -4 -20 -8 -14 -5 -149 -50 -160 -52
-3 -1 -13 -5 -22 -9 -9 -4 -22 -9 -30 -10 -7 -2 -21 -6 -30 -10 -9 -4 -25 -9
-35 -11 -10 -2 -18 -4 -18 -5 0 -1 -8 -3 -17 -5 -15 -3 -17 14 -17 193 l0 197
579 0 c318 0 582 -3 586 -8z m2314 -7 c5 -8 7 -17 4 -21 -2 -4 -5 -86 -5 -182
l-1 -175 -51 15 c-29 8 -90 29 -137 45 -47 16 -89 30 -95 32 -21 5 -181 58
-200 66 -11 5 -29 11 -40 12 -11 2 -22 5 -25 8 -3 3 -39 16 -80 28 -41 13 -84
27 -95 32 -11 5 -112 39 -225 76 -113 37 -208 70 -212 73 -4 3 254 6 573 6
493 0 581 -2 589 -15z m-1703 -181 c15 -6 35 -12 43 -14 8 -2 157 -52 330
-110 365 -123 326 -110 368 -120 18 -4 35 -12 38 -16 3 -5 15 -9 28 -9 12 0
26 -3 30 -7 3 -4 12 -8 19 -9 14 -2 252 -82 282 -94 24 -10 415 -140 432 -143
7 -2 16 -6 19 -10 4 -4 17 -7 28 -7 31 0 92 -36 88 -52 -6 -22 -3 -420 2 -426
3 -3 1 -11 -5 -18 -7 -8 -7 -14 1 -19 6 -3 8 -11 4 -16 -3 -6 -6 -36 -6 -67
l-1 -58 -1738 0 -1738 0 0 246 c0 135 -1 250 -2 255 -1 6 0 15 1 20 1 6 2 34
1 63 -1 29 2 51 6 50 4 -1 33 6 63 17 30 11 57 20 60 20 3 0 43 14 90 30 47
16 87 30 90 30 3 0 57 18 120 40 63 22 117 40 120 40 3 0 50 16 105 35 55 19
105 35 110 36 21 6 501 166 520 174 19 8 94 33 105 35 14 2 118 38 135 46 12
6 27 11 35 13 20 3 90 25 115 36 52 22 65 23 102 9z"/>
<path d="M3069 9407 c-25 -23 -74 -67 -109 -97 -35 -30 -68 -60 -74 -65 -6 -6
-60 -51 -121 -100 -60 -50 -111 -93 -113 -97 -2 -5 -8 -8 -13 -8 -5 0 -17 -8
-27 -18 -35 -35 -331 -251 -493 -361 -90 -61 -169 -114 -175 -118 -5 -5 -21
-14 -35 -22 -13 -8 -63 -39 -111 -68 -47 -29 -91 -53 -97 -53 -6 0 -11 -4 -11
-9 0 -5 -9 -12 -19 -16 -11 -3 -36 -17 -55 -30 -20 -13 -36 -22 -36 -18 0 3
-8 0 -17 -8 -10 -8 -40 -27 -68 -41 -27 -14 -76 -40 -107 -57 -32 -17 -58 -27
-58 -23 0 4 -4 2 -8 -4 -11 -16 -247 -127 -402 -189 -52 -21 -108 -43 -125
-50 -16 -7 -61 -24 -100 -37 -38 -12 -73 -27 -76 -31 -3 -5 -10 -8 -15 -7 -5
0 -47 -11 -94 -26 -47 -15 -91 -27 -97 -27 -7 0 -13 -4 -13 -9 0 -5 -4 -7 -8
-4 -5 3 -28 -2 -51 -10 -24 -8 -55 -17 -70 -19 -14 -2 -53 -11 -86 -20 -33 -8
-73 -18 -90 -20 -16 -3 -43 -9 -60 -13 l-30 -8 -3 -178 -2 -178 27 6 c28 6 57
12 103 21 14 3 36 7 50 11 14 3 35 7 47 9 11 2 30 6 41 9 11 4 29 8 39 10 10
2 38 10 63 17 51 14 63 17 87 23 10 3 18 5 18 6 0 1 7 3 16 5 9 1 43 11 75 21
33 10 61 18 64 19 32 8 178 58 207 71 21 8 45 17 53 19 30 7 315 127 329 138
8 7 15 11 15 9 4 -12 445 207 566 282 60 36 94 55 130 74 19 9 37 20 38 25 2
4 22 17 45 28 51 27 151 91 155 102 2 4 8 7 14 7 8 0 220 139 263 173 5 4 44
32 85 62 41 30 80 58 85 62 6 4 46 35 90 68 44 33 85 65 91 70 6 6 26 22 45
37 49 38 157 125 227 183 l61 50 0 233 c1 127 -2 232 -6 232 -5 0 -29 -20 -54
-43z"/>
<path d="M12870 9443 c-1 -5 0 -109 0 -232 1 -178 4 -227 15 -235 52 -41 82
-66 123 -103 26 -24 50 -43 53 -43 3 0 21 -14 40 -31 19 -17 59 -49 89 -72 30
-23 60 -46 66 -52 11 -11 21 -18 129 -96 38 -28 72 -54 75 -57 9 -13 69 -52
79 -52 5 0 11 -4 13 -9 5 -13 410 -281 425 -281 7 0 13 -4 13 -8 0 -5 18 -17
40 -28 22 -10 40 -22 40 -26 0 -5 4 -8 9 -8 5 0 44 -21 87 -46 80 -47 226
-126 279 -151 17 -8 37 -19 45 -24 28 -17 105 -52 113 -51 4 1 7 -3 7 -9 0 -5
5 -7 10 -4 6 3 10 1 10 -4 0 -6 6 -11 12 -11 7 0 40 -13 73 -29 80 -38 154
-71 160 -71 2 0 28 -11 57 -23 29 -13 76 -32 103 -42 28 -10 54 -22 60 -26 5
-5 17 -9 27 -9 10 0 26 -4 36 -9 35 -19 125 -51 142 -51 9 0 20 -3 24 -7 4 -5
11 -8 14 -9 4 0 27 -6 52 -13 25 -7 45 -12 45 -10 0 1 10 -3 21 -9 23 -12 356
-97 418 -107 40 -5 77 -13 109 -22 16 -4 17 9 17 174 l0 179 -110 23 c-60 13
-113 24 -117 24 -5 0 -30 8 -58 17 -27 9 -54 18 -60 19 -5 1 -28 7 -50 13 -22
6 -42 12 -45 13 -4 1 -85 26 -130 40 -3 1 -12 4 -20 8 -8 3 -32 11 -53 17 -22
7 -51 18 -65 26 -15 8 -32 14 -38 14 -10 0 -113 39 -164 62 -14 6 -29 12 -35
14 -46 11 -529 246 -557 272 -10 8 -18 11 -18 6 0 -5 -4 -4 -8 1 -4 6 -18 16
-32 22 -14 7 -52 28 -85 48 -33 20 -68 38 -77 42 -10 3 -18 9 -18 13 0 4 -8
10 -17 13 -19 7 -48 24 -170 101 -43 28 -81 55 -85 60 -5 7 -8 7 -8 1 0 -7 -3
-7 -8 0 -11 15 -70 55 -82 55 -5 0 -10 4 -10 8 0 5 -12 15 -27 23 -16 8 -30
17 -33 20 -3 3 -27 20 -55 39 -27 19 -52 36 -55 39 -3 4 -45 35 -95 71 -49 35
-92 66 -95 69 -3 4 -43 35 -90 71 -47 35 -92 72 -101 82 -9 10 -19 18 -23 18
-7 0 -183 145 -217 179 -9 9 -29 27 -45 40 -16 13 -59 51 -95 83 -66 57 -79
65 -79 51z"/>
<path d="M1074 4002 l-30 -3 1 -167 c1 -92 3 -170 4 -174 0 -3 313 -6 693 -5
l693 2 0 163 c0 90 -2 167 -5 171 -8 12 -60 19 -66 9 -3 -4 -9 -6 -14 -3 -5 3
-46 5 -92 5 -46 0 -94 0 -108 1 -14 0 -31 0 -37 0 -7 -1 -19 -1 -25 -2 -7 0
-97 1 -199 2 -103 1 -191 -1 -197 -5 -6 -3 -13 -2 -17 4 -4 6 -10 8 -15 5 -9
-5 -130 -9 -155 -5 -5 1 -30 1 -55 1 -53 -2 -50 -2 -158 -1 -45 0 -86 -1 -90
-1 -4 -1 -9 -1 -12 0 -10 4 -86 6 -116 3z"/>
<path d="M4214 4002 l-40 -3 0 -172 1 -172 695 0 695 0 0 168 c0 193 10 178
-112 177 -43 0 -89 0 -103 1 -14 0 -31 0 -37 0 -7 -1 -19 -1 -25 -2 -7 0 -97
1 -199 2 -103 1 -191 -1 -197 -5 -6 -3 -13 -2 -17 4 -4 6 -10 8 -15 5 -9 -5
-130 -9 -155 -5 -5 1 -30 1 -55 1 -56 -2 -60 -2 -115 -2 -25 0 -51 0 -57 0 -7
0 -43 1 -81 2 -37 1 -70 0 -73 -3 -3 -3 -19 -3 -37 1 -18 3 -50 5 -73 3z"/>
<path d="M7426 4003 c-2 -2 -30 -4 -63 -4 l-59 -1 2 -166 c1 -92 2 -170 3
-174 0 -4 313 -7 693 -5 l693 2 0 168 c0 93 -2 170 -5 172 -4 2 -31 4 -61 4
-30 1 -65 1 -79 2 -14 0 -31 0 -37 0 -7 -1 -19 -1 -25 -2 -7 0 -97 1 -199 2
-103 1 -191 -1 -197 -5 -6 -3 -13 -2 -17 4 -4 6 -10 8 -15 5 -9 -5 -130 -9
-155 -5 -8 1 -49 1 -110 -1 -5 0 -47 1 -93 2 -45 1 -85 -1 -88 -4 -3 -3 -18
-2 -33 3 -16 4 -33 5 -40 1 -6 -4 -34 -4 -61 -1 -28 4 -52 5 -54 3z"/>
<path d="M10444 4002 c-6 -4 -10 -76 -9 -177 l0 -170 695 0 695 0 0 170 0 170
-35 2 c-19 1 -39 2 -45 3 -5 1 -30 1 -55 1 -53 -2 -50 -2 -158 -1 -45 0 -86
-1 -90 -1 -4 -1 -11 0 -17 1 -8 1 -46 1 -110 -1 -25 -1 -183 0 -205 2 -14 0
-31 0 -37 0 -7 -1 -19 -1 -25 -2 -7 0 -97 1 -199 2 -103 1 -191 -1 -197 -5 -6
-3 -13 -2 -17 4 -4 6 -11 8 -16 4 -13 -7 -144 -8 -156 -1 -5 3 -13 3 -19 -1z"/>
<path d="M13600 4001 c-14 -1 -27 -7 -30 -11 -3 -5 -5 -82 -5 -172 l0 -163
695 0 695 0 1 163 c0 89 -3 167 -6 173 -7 10 -115 17 -125 7 -3 -2 -26 -2 -50
2 -25 4 -48 3 -51 -2 -3 -4 -10 -6 -15 -3 -12 8 -137 10 -145 3 -3 -3 -21 -2
-40 2 -19 4 -36 4 -39 0 -2 -4 -23 -4 -45 0 -23 4 -40 3 -40 -2 0 -5 -4 -6
-10 -3 -12 8 -138 10 -146 3 -3 -3 -21 -2 -40 2 -19 5 -37 4 -40 -1 -3 -5 -9
-7 -14 -4 -5 3 -37 5 -72 5 -35 0 -74 0 -88 1 -14 0 -31 0 -37 0 -24 -2 -48
-2 -136 -1 -48 0 -92 -2 -98 -5 -5 -4 -9 -3 -9 2 0 8 -65 11 -110 4z"/>
</g>
</svg>
